<?xml version="1.0" encoding="UTF-8" standalone="no"?>
<!-- Created with Inkscape (http://www.inkscape.org/) -->

<svg
   width="100"
   height="100"
   viewBox="0 0 26.458333 26.458333"
   version="1.1"
   id="svg1"
   sodipodi:docname="Extension.svg"
   inkscape:version="1.3.2 (1:1.3.2+202311252150+091e20ef0f)"
   xmlns:inkscape="http://www.inkscape.org/namespaces/inkscape"
   xmlns:sodipodi="http://sodipodi.sourceforge.net/DTD/sodipodi-0.dtd"
   xmlns="http://www.w3.org/2000/svg"
   xmlns:svg="http://www.w3.org/2000/svg">
  <sodipodi:namedview
     id="namedview1"
     pagecolor="#505050"
     bordercolor="#eeeeee"
     borderopacity="1"
     inkscape:showpageshadow="0"
     inkscape:pageopacity="0"
     inkscape:pagecheckerboard="0"
     inkscape:deskcolor="#d1d1d1"
     inkscape:zoom="8.48"
     inkscape:cx="50"
     inkscape:cy="50"
     inkscape:window-width="1920"
     inkscape:window-height="1052"
     inkscape:window-x="0"
     inkscape:window-y="0"
     inkscape:window-maximized="1"
     inkscape:current-layer="svg1" />
  <defs
     id="defs1" />
  <g
     id="layer1">
    <rect
       style="fill:#0083c4;stroke:none;stroke-width:3;stroke-opacity:0.7;fill-opacity:1"
       id="rect1"
       width="26.458332"
       height="26.458332"
       x="0"
       y="0" />
    <path
       d="m 6.6999758,20.657257 q -2.4496943,0 -3.6152747,-1.30387 -1.1655804,-1.323625 -1.1655804,-3.654786 0,-0.67169 0.059267,-1.422403 0.079022,-0.750713 0.197556,-1.501426 0.3556008,-2.291649 1.086558,-3.8325862 0.7309572,-1.5606924 1.9755599,-2.3509164 1.2446028,-0.790224 3.1016292,-0.790224 1.7187374,0 2.8843174,0.2765784 1.165581,0.2765784 1.837271,0.5531568 L 12.685923,8.9421858 Q 11.836432,8.7248742 10.828896,8.586585 9.8411162,8.4285402 8.8533362,8.4285402 q -0.7507128,0 -1.3631364,0.197556 -0.592668,0.197556 -1.0470468,0.7112016 -0.4543788,0.5136456 -0.790224,1.4816702 -0.3358452,0.948269 -0.5926679,2.489205 -0.098778,0.671691 -0.1778004,1.30387 -0.059267,0.632179 -0.059267,1.106314 0,1.205091 0.5729123,1.758248 0.592668,0.553157 2.074338,0.553157 1.3236252,0 2.1533604,-0.05927 0.8297354,-0.07902 1.6594704,-0.1778 l -0.375356,2.291649 q -0.9877804,0.355601 -2.094094,0.454379 -1.1063136,0.118534 -2.1138492,0.118534 z m 11.4779912,0 q -2.449694,0 -3.615275,-1.30387 -1.16558,-1.323625 -1.16558,-3.654786 0,-0.67169 0.05927,-1.422403 0.07902,-0.750713 0.197556,-1.501426 0.3556,-2.291649 1.086558,-3.8325862 0.730957,-1.5606924 1.97556,-2.3509164 1.244602,-0.790224 3.101629,-0.790224 1.718737,0 2.884317,0.2765784 1.165581,0.2765784 1.837271,0.5531568 L 24.163914,8.9421858 Q 23.314423,8.7248742 22.306887,8.586585 q -0.98778,-0.1580448 -1.97556,-0.1580448 -0.750712,0 -1.363136,0.197556 -0.592668,0.197556 -1.047047,0.7112016 -0.454379,0.5136456 -0.790224,1.4816702 -0.335845,0.948269 -0.592668,2.489205 -0.09878,0.671691 -0.1778,1.30387 -0.05927,0.632179 -0.05927,1.106314 0,1.205091 0.572912,1.758248 0.592668,0.553157 2.074338,0.553157 1.323626,0 2.153361,-0.05927 0.829735,-0.07902 1.65947,-0.1778 l -0.375356,2.291649 q -0.98778,0.355601 -2.094094,0.454379 -1.106313,0.118534 -2.113849,0.118534 z"
       id="text1"
       style="font-style:italic;font-weight:bold;font-size:19.7556px;line-height:1.25;font-family:Exo;-inkscape-font-specification:'Exo, Bold Italic';fill:#ffffff;stroke-width:0.264583"
       aria-label="CC" />
  </g>
</svg>
